<mxfile host="Electron" modified="2024-01-26T07:05:35.128Z" agent="Mozilla/5.0 (Windows NT 10.0; Win64; x64) AppleWebKit/537.36 (KHTML, like Gecko) draw.io/21.2.8 Chrome/112.0.5615.165 Electron/24.2.0 Safari/537.36" etag="_M4MdLqlKZwKpoIsA1Dr" version="21.2.8" type="device">
  <diagram name="第 1 页" id="JKUpQ7PeGige6tsIWXzT">
    <mxGraphModel dx="1658" dy="828" grid="1" gridSize="10" guides="1" tooltips="1" connect="1" arrows="1" fold="1" page="1" pageScale="1" pageWidth="1600" pageHeight="1200" math="0" shadow="0">
      <root>
        <mxCell id="0" />
        <mxCell id="1" parent="0" />
        <mxCell id="LhWzl0DsoIRtWh7QOUaE-17" style="edgeStyle=orthogonalEdgeStyle;rounded=0;orthogonalLoop=1;jettySize=auto;html=1;exitX=1;exitY=0.5;exitDx=0;exitDy=0;entryX=0;entryY=0.5;entryDx=0;entryDy=0;" parent="1" source="LhWzl0DsoIRtWh7QOUaE-1" target="LhWzl0DsoIRtWh7QOUaE-7" edge="1">
          <mxGeometry relative="1" as="geometry" />
        </mxCell>
        <mxCell id="LhWzl0DsoIRtWh7QOUaE-1" value="&lt;font style=&quot;font-size: 16px;&quot;&gt;HEST头部&lt;/font&gt;" style="rounded=0;whiteSpace=wrap;html=1;fillColor=#dae8fc;strokeColor=#6c8ebf;" parent="1" vertex="1">
          <mxGeometry x="310" y="110" width="310" height="80" as="geometry" />
        </mxCell>
        <mxCell id="LhWzl0DsoIRtWh7QOUaE-3" value="&lt;font style=&quot;font-size: 16px;&quot;&gt;Error Source Structure 1&lt;/font&gt;" style="rounded=0;whiteSpace=wrap;html=1;fillColor=#dae8fc;strokeColor=#6c8ebf;" parent="1" vertex="1">
          <mxGeometry x="310" y="190" width="310" height="80" as="geometry" />
        </mxCell>
        <mxCell id="LhWzl0DsoIRtWh7QOUaE-4" value="&lt;font style=&quot;font-size: 16px;&quot;&gt;Error Source Structure 2&lt;/font&gt;" style="rounded=0;whiteSpace=wrap;html=1;fillColor=#dae8fc;strokeColor=#6c8ebf;" parent="1" vertex="1">
          <mxGeometry x="310" y="270" width="310" height="80" as="geometry" />
        </mxCell>
        <mxCell id="LhWzl0DsoIRtWh7QOUaE-5" value="&lt;font style=&quot;font-size: 16px;&quot;&gt;Error Source Structure 3&lt;/font&gt;" style="rounded=0;whiteSpace=wrap;html=1;fillColor=#dae8fc;strokeColor=#6c8ebf;" parent="1" vertex="1">
          <mxGeometry x="310" y="350" width="310" height="80" as="geometry" />
        </mxCell>
        <mxCell id="LhWzl0DsoIRtWh7QOUaE-21" style="edgeStyle=orthogonalEdgeStyle;rounded=0;orthogonalLoop=1;jettySize=auto;html=1;exitX=1;exitY=0.5;exitDx=0;exitDy=0;entryX=0;entryY=0.5;entryDx=0;entryDy=0;" parent="1" source="LhWzl0DsoIRtWh7QOUaE-6" target="LhWzl0DsoIRtWh7QOUaE-20" edge="1">
          <mxGeometry relative="1" as="geometry" />
        </mxCell>
        <mxCell id="LhWzl0DsoIRtWh7QOUaE-22" value="&lt;font style=&quot;font-size: 16px;&quot;&gt;假设这个是GHES&lt;/font&gt;" style="edgeLabel;html=1;align=center;verticalAlign=middle;resizable=0;points=[];" parent="LhWzl0DsoIRtWh7QOUaE-21" vertex="1" connectable="0">
          <mxGeometry x="-0.2231" y="-1" relative="1" as="geometry">
            <mxPoint x="67" y="-1" as="offset" />
          </mxGeometry>
        </mxCell>
        <mxCell id="LhWzl0DsoIRtWh7QOUaE-6" value="&lt;font style=&quot;font-size: 16px;&quot;&gt;Error Source Structure 4&lt;/font&gt;" style="rounded=0;whiteSpace=wrap;html=1;fillColor=#dae8fc;strokeColor=#6c8ebf;" parent="1" vertex="1">
          <mxGeometry x="310" y="430" width="310" height="80" as="geometry" />
        </mxCell>
        <mxCell id="LhWzl0DsoIRtWh7QOUaE-7" value="&quot;HEST&quot;" style="rounded=0;whiteSpace=wrap;html=1;fillColor=#d5e8d4;strokeColor=#82b366;" parent="1" vertex="1">
          <mxGeometry x="730" y="80" width="120" height="30" as="geometry" />
        </mxCell>
        <mxCell id="LhWzl0DsoIRtWh7QOUaE-8" value="HEST表的长度" style="rounded=0;whiteSpace=wrap;html=1;fillColor=#d5e8d4;strokeColor=#82b366;" parent="1" vertex="1">
          <mxGeometry x="730" y="110" width="120" height="30" as="geometry" />
        </mxCell>
        <mxCell id="LhWzl0DsoIRtWh7QOUaE-9" value="revision" style="rounded=0;whiteSpace=wrap;html=1;fillColor=#d5e8d4;strokeColor=#82b366;" parent="1" vertex="1">
          <mxGeometry x="730" y="140" width="120" height="30" as="geometry" />
        </mxCell>
        <mxCell id="LhWzl0DsoIRtWh7QOUaE-10" value="表的checksum" style="rounded=0;whiteSpace=wrap;html=1;fillColor=#d5e8d4;strokeColor=#82b366;" parent="1" vertex="1">
          <mxGeometry x="730" y="170" width="120" height="30" as="geometry" />
        </mxCell>
        <mxCell id="LhWzl0DsoIRtWh7QOUaE-11" value="OEM ID" style="rounded=0;whiteSpace=wrap;html=1;fillColor=#d5e8d4;strokeColor=#82b366;" parent="1" vertex="1">
          <mxGeometry x="730" y="200" width="120" height="30" as="geometry" />
        </mxCell>
        <mxCell id="LhWzl0DsoIRtWh7QOUaE-12" value="Oem Table ID" style="rounded=0;whiteSpace=wrap;html=1;fillColor=#d5e8d4;strokeColor=#82b366;" parent="1" vertex="1">
          <mxGeometry x="730" y="230" width="120" height="30" as="geometry" />
        </mxCell>
        <mxCell id="LhWzl0DsoIRtWh7QOUaE-13" value="Oem Revision" style="rounded=0;whiteSpace=wrap;html=1;fillColor=#d5e8d4;strokeColor=#82b366;" parent="1" vertex="1">
          <mxGeometry x="730" y="260" width="120" height="30" as="geometry" />
        </mxCell>
        <mxCell id="LhWzl0DsoIRtWh7QOUaE-14" value="Asl Compiler ID" style="rounded=0;whiteSpace=wrap;html=1;fillColor=#d5e8d4;strokeColor=#82b366;" parent="1" vertex="1">
          <mxGeometry x="730" y="290" width="120" height="30" as="geometry" />
        </mxCell>
        <mxCell id="LhWzl0DsoIRtWh7QOUaE-15" value="Asl Compiler Revision" style="rounded=0;whiteSpace=wrap;html=1;fillColor=#d5e8d4;strokeColor=#82b366;" parent="1" vertex="1">
          <mxGeometry x="730" y="320" width="120" height="30" as="geometry" />
        </mxCell>
        <mxCell id="LhWzl0DsoIRtWh7QOUaE-16" value="Error Source Structure的数量" style="rounded=0;whiteSpace=wrap;html=1;fillColor=#d5e8d4;strokeColor=#82b366;" parent="1" vertex="1">
          <mxGeometry x="730" y="350" width="120" height="40" as="geometry" />
        </mxCell>
        <mxCell id="LhWzl0DsoIRtWh7QOUaE-19" value="&lt;font style=&quot;font-size: 16px;&quot;&gt;Error Source Structure ...&lt;/font&gt;" style="rounded=0;whiteSpace=wrap;html=1;fillColor=#dae8fc;strokeColor=#6c8ebf;" parent="1" vertex="1">
          <mxGeometry x="310" y="510" width="310" height="80" as="geometry" />
        </mxCell>
        <mxCell id="LhWzl0DsoIRtWh7QOUaE-20" value="&lt;font style=&quot;font-size: 16px;&quot;&gt;Subtable Type(9)&lt;/font&gt;" style="rounded=0;whiteSpace=wrap;html=1;fillColor=#e1d5e7;strokeColor=#9673a6;" parent="1" vertex="1">
          <mxGeometry x="880" y="450" width="200" height="40" as="geometry" />
        </mxCell>
        <mxCell id="LhWzl0DsoIRtWh7QOUaE-30" value="&lt;font style=&quot;font-size: 16px;&quot;&gt;Source Id&lt;/font&gt;" style="rounded=0;whiteSpace=wrap;html=1;fillColor=#e1d5e7;strokeColor=#9673a6;" parent="1" vertex="1">
          <mxGeometry x="880" y="490" width="200" height="40" as="geometry" />
        </mxCell>
        <mxCell id="LhWzl0DsoIRtWh7QOUaE-31" value="&lt;font style=&quot;font-size: 16px;&quot;&gt;Related Source Id&lt;/font&gt;" style="rounded=0;whiteSpace=wrap;html=1;fillColor=#e1d5e7;strokeColor=#9673a6;" parent="1" vertex="1">
          <mxGeometry x="880" y="530" width="200" height="40" as="geometry" />
        </mxCell>
        <mxCell id="LhWzl0DsoIRtWh7QOUaE-32" value="&lt;font style=&quot;font-size: 16px;&quot;&gt;Reserved&lt;/font&gt;" style="rounded=0;whiteSpace=wrap;html=1;fillColor=#e1d5e7;strokeColor=#9673a6;" parent="1" vertex="1">
          <mxGeometry x="880" y="570" width="200" height="40" as="geometry" />
        </mxCell>
        <mxCell id="LhWzl0DsoIRtWh7QOUaE-33" value="&lt;font style=&quot;font-size: 16px;&quot;&gt;Enabled&lt;/font&gt;" style="rounded=0;whiteSpace=wrap;html=1;fillColor=#e1d5e7;strokeColor=#9673a6;" parent="1" vertex="1">
          <mxGeometry x="880" y="610" width="200" height="40" as="geometry" />
        </mxCell>
        <mxCell id="LhWzl0DsoIRtWh7QOUaE-34" value="&lt;font style=&quot;font-size: 16px;&quot;&gt;Records To Preallocate&lt;/font&gt;" style="rounded=0;whiteSpace=wrap;html=1;fillColor=#e1d5e7;strokeColor=#9673a6;" parent="1" vertex="1">
          <mxGeometry x="880" y="650" width="200" height="40" as="geometry" />
        </mxCell>
        <mxCell id="LhWzl0DsoIRtWh7QOUaE-35" value="&lt;font style=&quot;font-size: 16px;&quot;&gt;Max Sections Per Record&lt;/font&gt;" style="rounded=0;whiteSpace=wrap;html=1;fillColor=#e1d5e7;strokeColor=#9673a6;" parent="1" vertex="1">
          <mxGeometry x="880" y="690" width="200" height="40" as="geometry" />
        </mxCell>
        <mxCell id="LhWzl0DsoIRtWh7QOUaE-36" value="&lt;font style=&quot;font-size: 16px;&quot;&gt;Max Raw Data Length&lt;/font&gt;" style="rounded=0;whiteSpace=wrap;html=1;fillColor=#e1d5e7;strokeColor=#9673a6;" parent="1" vertex="1">
          <mxGeometry x="880" y="730" width="200" height="40" as="geometry" />
        </mxCell>
        <mxCell id="LhWzl0DsoIRtWh7QOUaE-41" style="edgeStyle=orthogonalEdgeStyle;rounded=0;orthogonalLoop=1;jettySize=auto;html=1;exitX=1;exitY=0.5;exitDx=0;exitDy=0;entryX=0;entryY=0.5;entryDx=0;entryDy=0;" parent="1" source="LhWzl0DsoIRtWh7QOUaE-37" target="LhWzl0DsoIRtWh7QOUaE-40" edge="1">
          <mxGeometry relative="1" as="geometry" />
        </mxCell>
        <mxCell id="LhWzl0DsoIRtWh7QOUaE-37" value="&lt;font style=&quot;font-size: 16px;&quot;&gt;Error Status Address&lt;/font&gt;" style="rounded=0;whiteSpace=wrap;html=1;fillColor=#e1d5e7;strokeColor=#9673a6;" parent="1" vertex="1">
          <mxGeometry x="880" y="770" width="200" height="40" as="geometry" />
        </mxCell>
        <mxCell id="LhWzl0DsoIRtWh7QOUaE-38" value="&lt;font style=&quot;font-size: 16px;&quot;&gt;Notify&lt;/font&gt;" style="rounded=0;whiteSpace=wrap;html=1;fillColor=#e1d5e7;strokeColor=#9673a6;" parent="1" vertex="1">
          <mxGeometry x="880" y="810" width="200" height="40" as="geometry" />
        </mxCell>
        <mxCell id="LhWzl0DsoIRtWh7QOUaE-39" value="&lt;font style=&quot;font-size: 16px;&quot;&gt;Error Status Block Length&lt;/font&gt;" style="rounded=0;whiteSpace=wrap;html=1;fillColor=#e1d5e7;strokeColor=#9673a6;" parent="1" vertex="1">
          <mxGeometry x="880" y="850" width="200" height="40" as="geometry" />
        </mxCell>
        <mxCell id="LhWzl0DsoIRtWh7QOUaE-40" value="&lt;font style=&quot;font-size: 16px;&quot;&gt;Generic Error Status&lt;/font&gt;" style="rounded=0;whiteSpace=wrap;html=1;fillColor=#dae8fc;strokeColor=#6c8ebf;" parent="1" vertex="1">
          <mxGeometry x="1220" y="530" width="180" height="45" as="geometry" />
        </mxCell>
        <mxCell id="LhWzl0DsoIRtWh7QOUaE-42" value="&lt;font style=&quot;font-size: 16px;&quot;&gt;Generic Error Data Entry&lt;/font&gt;" style="rounded=0;whiteSpace=wrap;html=1;fillColor=#fff2cc;strokeColor=#d6b656;" parent="1" vertex="1">
          <mxGeometry x="1220" y="575" width="180" height="45" as="geometry" />
        </mxCell>
        <mxCell id="LhWzl0DsoIRtWh7QOUaE-52" style="edgeStyle=orthogonalEdgeStyle;rounded=0;orthogonalLoop=1;jettySize=auto;html=1;exitX=1;exitY=0.5;exitDx=0;exitDy=0;entryX=0;entryY=0.5;entryDx=0;entryDy=0;" parent="1" source="LhWzl0DsoIRtWh7QOUaE-43" target="LhWzl0DsoIRtWh7QOUaE-51" edge="1">
          <mxGeometry relative="1" as="geometry" />
        </mxCell>
        <mxCell id="LhWzl0DsoIRtWh7QOUaE-43" value="&lt;font style=&quot;font-size: 16px;&quot;&gt;Error Section&lt;/font&gt;" style="rounded=0;whiteSpace=wrap;html=1;fillColor=#fff2cc;strokeColor=#d6b656;" parent="1" vertex="1">
          <mxGeometry x="1220" y="620" width="180" height="45" as="geometry" />
        </mxCell>
        <mxCell id="LhWzl0DsoIRtWh7QOUaE-44" value="&lt;font style=&quot;font-size: 16px;&quot;&gt;Generic Error Data Entry&lt;/font&gt;" style="rounded=0;whiteSpace=wrap;html=1;fillColor=#d5e8d4;strokeColor=#82b366;" parent="1" vertex="1">
          <mxGeometry x="1220" y="665" width="180" height="45" as="geometry" />
        </mxCell>
        <mxCell id="LhWzl0DsoIRtWh7QOUaE-56" style="edgeStyle=orthogonalEdgeStyle;rounded=0;orthogonalLoop=1;jettySize=auto;html=1;exitX=1;exitY=0.5;exitDx=0;exitDy=0;entryX=0;entryY=0.5;entryDx=0;entryDy=0;" parent="1" source="LhWzl0DsoIRtWh7QOUaE-45" target="LhWzl0DsoIRtWh7QOUaE-55" edge="1">
          <mxGeometry relative="1" as="geometry" />
        </mxCell>
        <mxCell id="LhWzl0DsoIRtWh7QOUaE-45" value="&lt;font style=&quot;font-size: 16px;&quot;&gt;Error Section&lt;/font&gt;" style="rounded=0;whiteSpace=wrap;html=1;fillColor=#d5e8d4;strokeColor=#82b366;" parent="1" vertex="1">
          <mxGeometry x="1220" y="710" width="180" height="45" as="geometry" />
        </mxCell>
        <mxCell id="LhWzl0DsoIRtWh7QOUaE-46" value="&lt;font style=&quot;font-size: 16px;&quot;&gt;Generic Error Data Entry&lt;/font&gt;" style="rounded=0;whiteSpace=wrap;html=1;fillColor=#f5f5f5;fontColor=#333333;strokeColor=#666666;" parent="1" vertex="1">
          <mxGeometry x="1220" y="755" width="180" height="45" as="geometry" />
        </mxCell>
        <mxCell id="LhWzl0DsoIRtWh7QOUaE-54" style="edgeStyle=orthogonalEdgeStyle;rounded=0;orthogonalLoop=1;jettySize=auto;html=1;exitX=1;exitY=0.5;exitDx=0;exitDy=0;entryX=0;entryY=0.5;entryDx=0;entryDy=0;" parent="1" source="LhWzl0DsoIRtWh7QOUaE-47" target="LhWzl0DsoIRtWh7QOUaE-53" edge="1">
          <mxGeometry relative="1" as="geometry" />
        </mxCell>
        <mxCell id="LhWzl0DsoIRtWh7QOUaE-47" value="&lt;font style=&quot;font-size: 16px;&quot;&gt;Error Section&lt;/font&gt;" style="rounded=0;whiteSpace=wrap;html=1;fillColor=#f5f5f5;fontColor=#333333;strokeColor=#666666;" parent="1" vertex="1">
          <mxGeometry x="1220" y="800" width="180" height="45" as="geometry" />
        </mxCell>
        <mxCell id="LhWzl0DsoIRtWh7QOUaE-48" value="&lt;font style=&quot;font-size: 16px;&quot;&gt;Generic Error Data Entry&lt;/font&gt;" style="rounded=0;whiteSpace=wrap;html=1;fillColor=#f8cecc;strokeColor=#b85450;" parent="1" vertex="1">
          <mxGeometry x="1220" y="845" width="180" height="45" as="geometry" />
        </mxCell>
        <mxCell id="LhWzl0DsoIRtWh7QOUaE-58" style="edgeStyle=orthogonalEdgeStyle;rounded=0;orthogonalLoop=1;jettySize=auto;html=1;exitX=1;exitY=0.5;exitDx=0;exitDy=0;entryX=0;entryY=0.5;entryDx=0;entryDy=0;" parent="1" source="LhWzl0DsoIRtWh7QOUaE-49" target="LhWzl0DsoIRtWh7QOUaE-57" edge="1">
          <mxGeometry relative="1" as="geometry" />
        </mxCell>
        <mxCell id="LhWzl0DsoIRtWh7QOUaE-49" value="&lt;font style=&quot;font-size: 16px;&quot;&gt;Error Section&lt;/font&gt;" style="rounded=0;whiteSpace=wrap;html=1;fillColor=#f8cecc;strokeColor=#b85450;" parent="1" vertex="1">
          <mxGeometry x="1220" y="890" width="180" height="45" as="geometry" />
        </mxCell>
        <mxCell id="LhWzl0DsoIRtWh7QOUaE-51" value="&lt;font style=&quot;font-size: 16px;&quot;&gt;CPER Section&lt;/font&gt;" style="rounded=0;whiteSpace=wrap;html=1;fillColor=#fff2cc;strokeColor=#d6b656;" parent="1" vertex="1">
          <mxGeometry x="1460" y="620" width="180" height="45" as="geometry" />
        </mxCell>
        <mxCell id="LhWzl0DsoIRtWh7QOUaE-53" value="&lt;font style=&quot;font-size: 16px;&quot;&gt;CPER Section&lt;/font&gt;" style="rounded=0;whiteSpace=wrap;html=1;fillColor=#f5f5f5;fontColor=#333333;strokeColor=#666666;" parent="1" vertex="1">
          <mxGeometry x="1460" y="800" width="180" height="45" as="geometry" />
        </mxCell>
        <mxCell id="LhWzl0DsoIRtWh7QOUaE-55" value="&lt;font style=&quot;font-size: 16px;&quot;&gt;CPER Section&lt;/font&gt;" style="rounded=0;whiteSpace=wrap;html=1;fillColor=#d5e8d4;strokeColor=#82b366;" parent="1" vertex="1">
          <mxGeometry x="1460" y="710" width="180" height="45" as="geometry" />
        </mxCell>
        <mxCell id="LhWzl0DsoIRtWh7QOUaE-57" value="&lt;font style=&quot;font-size: 16px;&quot;&gt;CPER Section&lt;/font&gt;" style="rounded=0;whiteSpace=wrap;html=1;fillColor=#f8cecc;strokeColor=#b85450;" parent="1" vertex="1">
          <mxGeometry x="1460" y="890" width="180" height="45" as="geometry" />
        </mxCell>
      </root>
    </mxGraphModel>
  </diagram>
</mxfile>
